<?xml version="1.0" encoding="utf-8"?>
<!-- Generator: Adobe Illustrator 15.1.0, SVG Export Plug-In . SVG Version: 6.00 Build 0)  -->
<!DOCTYPE svg PUBLIC "-//W3C//DTD SVG 1.1//EN" "http://www.w3.org/Graphics/SVG/1.1/DTD/svg11.dtd">
<svg version="1.1" id="Ebene_1" xmlns="http://www.w3.org/2000/svg" xmlns:xlink="http://www.w3.org/1999/xlink" x="0px" y="0px"
	 width="728.5px" height="1031.809px" viewBox="0 0 728.5 1031.809" enable-background="new 0 0 728.5 1031.809"
	 xml:space="preserve">
<g id="Grundriss">
	<line fill="none" stroke="#000000" stroke-width="3" stroke-miterlimit="10" x1="174.265" y1="92.988" x2="434.722" y2="92.988"/>
	<polyline fill="none" stroke="#000000" stroke-width="3" stroke-miterlimit="10" points="137.23,249.35 46.2,249.35 46.2,92.988 
		146.835,92.988 	"/>
	<line fill="none" stroke="#000000" stroke-width="3" stroke-miterlimit="10" x1="360.651" y1="249.35" x2="182.572" y2="249.35"/>
	<polyline fill="none" stroke="#000000" stroke-width="3" stroke-miterlimit="10" points="455.056,92.988 501.263,92.988 
		501.263,249.35 405.561,249.35 	"/>
	<polyline fill="none" stroke="#000000" stroke-width="3" stroke-miterlimit="10" points="146.142,47.126 55.285,47.126 
		55.285,92.988 146.835,92.988 	"/>
	<polyline fill="none" stroke="#000000" stroke-width="3" stroke-miterlimit="10" points="174.265,92.988 238.989,92.988 
		238.989,47.126 175.822,47.126 	"/>
	<line fill="none" stroke="#000000" stroke-width="3" stroke-miterlimit="10" x1="102.877" y1="202.883" x2="46.2" y2="202.883"/>
	
		<line fill="none" stroke="#000000" stroke-width="3" stroke-miterlimit="10" x1="102.877" y1="123.533" x2="102.877" y2="216.985"/>
	<line fill="none" stroke="#000000" stroke-width="3" stroke-miterlimit="10" x1="46.2" y1="144.301" x2="102.877" y2="144.301"/>
	<g id="Ebene_2">
	</g>
	<g enable-background="new    ">
		<path d="M475.925,100.329h2.355l3.524,9.966h-2.258l-0.657-2.049h-3.67l-0.675,2.049h-2.179L475.925,100.329z M475.787,106.528
			h2.552l-1.259-3.921L475.787,106.528z"/>
	</g>
	<g enable-background="new    ">
		<path d="M493.756,168.347c0.305,0.424,0.457,0.931,0.457,1.521c0,0.608-0.153,1.099-0.461,1.467
			c-0.172,0.207-0.426,0.396-0.76,0.567c0.508,0.187,0.892,0.479,1.149,0.879c0.259,0.401,0.389,0.889,0.389,1.461
			c0,0.591-0.147,1.119-0.443,1.588c-0.188,0.312-0.423,0.572-0.705,0.784c-0.318,0.243-0.693,0.41-1.126,0.501
			c-0.433,0.09-0.901,0.136-1.408,0.136h-4.489v-9.966h4.815C492.389,167.304,493.249,167.656,493.756,168.347z M488.346,169.016
			v2.197h2.422c0.434,0,0.783-0.082,1.054-0.246c0.271-0.165,0.404-0.457,0.404-0.876c0-0.464-0.178-0.771-0.535-0.919
			c-0.308-0.104-0.699-0.156-1.178-0.156H488.346L488.346,169.016z M488.346,172.861v2.657h2.419c0.432,0,0.77-0.06,1.009-0.176
			c0.438-0.218,0.655-0.631,0.655-1.244c0-0.52-0.212-0.874-0.635-1.068c-0.236-0.106-0.568-0.164-0.996-0.169H488.346
			L488.346,172.861z"/>
	</g>
	<g enable-background="new    ">
		<path d="M450.27,233.717c0.802-0.82,1.823-1.23,3.062-1.23c1.659,0,2.871,0.551,3.639,1.65c0.423,0.617,0.65,1.236,0.682,1.857
			h-2.081c-0.133-0.478-0.304-0.838-0.511-1.08c-0.371-0.434-0.921-0.649-1.648-0.649c-0.741,0-1.326,0.306-1.755,0.916
			s-0.644,1.475-0.644,2.593c0,1.117,0.228,1.955,0.679,2.512c0.451,0.558,1.025,0.834,1.723,0.834c0.715,0,1.259-0.237,1.634-0.716
			c0.207-0.257,0.379-0.643,0.516-1.155h2.068c-0.178,1.086-0.634,1.97-1.367,2.649c-0.732,0.681-1.673,1.021-2.819,1.021
			c-1.416,0-2.531-0.46-3.344-1.379c-0.812-0.925-1.217-2.19-1.217-3.801C448.885,236,449.346,234.658,450.27,233.717z"/>
	</g>
	<g enable-background="new    ">
		<path d="M278.532,232.893c0.698,0.229,1.265,0.651,1.697,1.264c0.348,0.496,0.584,1.032,0.71,1.609s0.189,1.127,0.189,1.648
			c0,1.325-0.267,2.447-0.798,3.366c-0.723,1.24-1.836,1.859-3.344,1.859h-4.296v-9.965h4.296
			C277.607,232.686,278.121,232.757,278.532,232.893z M274.715,234.405v6.504h1.923c0.983,0,1.67-0.483,2.059-1.452
			c0.213-0.532,0.317-1.165,0.317-1.9c0-1.014-0.159-1.792-0.477-2.335c-0.318-0.543-0.952-0.815-1.899-0.815L274.715,234.405
			L274.715,234.405z"/>
	</g>
	<g enable-background="new    ">
		<path d="M92.29,234.439h-5.273v2.116h4.84v1.729h-4.84v2.562h5.516v1.791h-7.551v-9.965h7.308V234.439L92.29,234.439z"/>
	</g>
	<g enable-background="new    ">
		<path d="M52.484,223.096h7.105v1.751h-5.037v2.292h4.415v1.729h-4.415v4.179h-2.068V223.096z"/>
	</g>
	<g enable-background="new    ">
		<path d="M77.458,212.485c-0.158-0.681-0.543-1.156-1.156-1.427c-0.343-0.148-0.724-0.223-1.143-0.223
			c-0.802,0-1.461,0.302-1.978,0.906c-0.516,0.604-0.774,1.516-0.774,2.729c0,1.223,0.279,2.089,0.838,2.598
			c0.559,0.508,1.194,0.763,1.906,0.763c0.699,0,1.271-0.2,1.717-0.602c0.446-0.401,0.721-0.927,0.825-1.576h-2.305v-1.663h4.15
			v5.349h-1.379l-0.209-1.244c-0.401,0.472-0.762,0.804-1.082,0.996c-0.55,0.337-1.226,0.505-2.028,0.505
			c-1.32,0-2.402-0.457-3.245-1.371c-0.879-0.919-1.318-2.176-1.318-3.771c0-1.611,0.444-2.903,1.332-3.877
			c0.888-0.974,2.062-1.46,3.522-1.46c1.267,0,2.284,0.321,3.052,0.964c0.769,0.643,1.209,1.443,1.322,2.403L77.458,212.485
			L77.458,212.485z"/>
	</g>
	<g enable-background="new    ">
		<path d="M110.949,175.267v-9.965h2.069v3.8h3.874v-3.8h2.068v9.965h-2.068v-4.448h-3.874v4.448H110.949z"/>
	</g>
	<g enable-background="new    ">
		<path d="M54.384,123.562h-2.068v-9.965h2.068V123.562z"/>
	</g>
	<g enable-background="new    ">
		<path d="M83.397,106.516v0.229c0.017,0.771,0.096,1.312,0.238,1.626c0.142,0.312,0.446,0.471,0.912,0.471
			c0.461,0,0.766-0.172,0.914-0.515c0.089-0.202,0.133-0.546,0.133-1.027v-6.971h2.083v6.938c0,0.847-0.144,1.519-0.43,2.015
			c-0.485,0.838-1.359,1.257-2.625,1.257c-1.265,0-2.113-0.339-2.544-1.018c-0.432-0.678-0.648-1.603-0.648-2.774v-0.229
			L83.397,106.516L83.397,106.516z"/>
	</g>
	<g enable-background="new    ">
		<path d="M288.262,100.329h2.048v4.106l3.851-4.106h2.689l-4.089,4.1l4.299,5.866h-2.677l-3.07-4.351l-1.003,1.018v3.333h-2.048
			V100.329L288.262,100.329z"/>
	</g>
	<g enable-background="new    ">
		<path d="M200.543,77.255h2.082v8.174h4.976v1.791h-7.058V77.255z"/>
	</g>
	<g enable-background="new    ">
		<path d="M207.153,54.181h2.996v9.964h-1.94v-6.74c0-0.194,0.002-0.465,0.007-0.815c0.004-0.349,0.007-0.618,0.007-0.808
			l-1.889,8.362h-2.023l-1.875-8.362c0,0.189,0.002,0.458,0.007,0.808c0.004,0.35,0.007,0.621,0.007,0.815v6.74h-1.94v-9.964h3.03
			l1.813,7.835L207.153,54.181z"/>
	</g>
</g>
<g id="Wand_A_Active">
	<line fill="none" stroke="#E2001A" stroke-width="3" stroke-miterlimit="10" x1="455.056" y1="92.988" x2="502.562" y2="92.988"/>
</g>
<g id="Wand_A_Over">
	<line fill="none" stroke="#707173" stroke-width="3" stroke-miterlimit="10" x1="455.056" y1="92.988" x2="502.562" y2="92.988"/>
</g>
<g id="Wand_A">
	<line fill="none" stroke="#000000" stroke-width="3" stroke-miterlimit="10" x1="455.056" y1="92.988" x2="502.562" y2="92.988"/>
</g>
<g id="Wand_B_Active">
	<line fill="none" stroke="#E2001A" stroke-width="3" stroke-miterlimit="10" x1="501.263" y1="91.689" x2="501.263" y2="250.646"/>
</g>
<g id="Wand_B_Over">
	<line fill="none" stroke="#707173" stroke-width="3" stroke-miterlimit="10" x1="501.263" y1="91.689" x2="501.263" y2="250.646"/>
</g>
<g id="Wand_B">
	<line fill="none" stroke="#000000" stroke-width="3" stroke-miterlimit="10" x1="501.263" y1="91.689" x2="501.263" y2="250.646"/>
</g>
<g id="Wand_C_Active">
	<line fill="none" stroke="#E2001A" stroke-width="3" stroke-miterlimit="10" x1="502.562" y1="249.35" x2="405.561" y2="249.35"/>
	<path fill="none" stroke="#E2001A" stroke-width="3" stroke-miterlimit="10" d="M102.877,144.301"/>
	<path fill="none" stroke="#E2001A" stroke-width="3" stroke-miterlimit="10" d="M46.2,144.301"/>
</g>
<g id="Wand_C_Over">
	<line fill="none" stroke="#707173" stroke-width="3" stroke-miterlimit="10" x1="502.562" y1="249.35" x2="405.561" y2="249.35"/>
	<path fill="none" stroke="#707173" stroke-width="3" stroke-miterlimit="10" d="M102.877,144.301"/>
	<path fill="none" stroke="#707173" stroke-width="3" stroke-miterlimit="10" d="M46.2,144.301"/>
</g>
<g id="Wand_C">
	<line fill="none" stroke="#000000" stroke-width="3" stroke-miterlimit="10" x1="502.562" y1="249.35" x2="405.561" y2="249.35"/>
	<path fill="none" stroke="#000000" stroke-width="3" stroke-miterlimit="10" d="M102.877,144.301"/>
	<path fill="none" stroke="#000000" stroke-width="3" stroke-miterlimit="10" d="M46.2,144.301"/>
</g>
<g id="Wand_D_Active">
	<line fill="none" stroke="#E2001A" stroke-width="3" stroke-miterlimit="10" x1="360.651" y1="249.35" x2="182.572" y2="249.35"/>
</g>
<g id="Wand_D_Over">
	<line fill="none" stroke="#707173" stroke-width="3" stroke-miterlimit="10" x1="360.651" y1="249.35" x2="182.572" y2="249.35"/>
</g>
<g id="Wand_D">
	<line fill="none" stroke="#000000" stroke-width="3" stroke-miterlimit="10" x1="360.651" y1="249.35" x2="182.572" y2="249.35"/>
</g>
<g id="Wand_E_Active">
	<line fill="none" stroke="#E2001A" stroke-width="3" stroke-miterlimit="10" x1="137.23" y1="249.35" x2="44.815" y2="249.35"/>
</g>
<g id="Wand_E_Over">
	<line fill="none" stroke="#707173" stroke-width="3" stroke-miterlimit="10" x1="137.23" y1="249.35" x2="44.815" y2="249.35"/>
</g>
<g id="Wand_E">
	<line fill="none" stroke="#000000" stroke-width="3" stroke-miterlimit="10" x1="137.23" y1="249.35" x2="44.815" y2="249.35"/>
</g>
<g id="Wand_F_Active">
	<path fill="none" stroke="#E2001A" stroke-width="3" stroke-miterlimit="10" d="M46.2,201.584"/>
	<line fill="none" stroke="#E2001A" stroke-width="3" stroke-miterlimit="10" x1="46.2" y1="250.646" x2="46.2" y2="201.584"/>
	<path fill="none" stroke="#E2001A" stroke-width="3" stroke-miterlimit="10" d="M46.2,201.584"/>
</g>
<g id="Wand_F_Over">
	<path fill="none" stroke="#707173" stroke-width="3" stroke-miterlimit="10" d="M46.2,201.584"/>
	<line fill="none" stroke="#707173" stroke-width="3" stroke-miterlimit="10" x1="46.2" y1="250.646" x2="46.2" y2="201.584"/>
	<path fill="none" stroke="#707173" stroke-width="3" stroke-miterlimit="10" d="M46.2,201.584"/>
</g>
<g id="Wand_F">
	<path fill="none" stroke="#000000" stroke-width="3" stroke-miterlimit="10" d="M46.2,201.584"/>
	<line fill="none" stroke="#000000" stroke-width="3" stroke-miterlimit="10" x1="46.2" y1="250.646" x2="46.2" y2="201.584"/>
	<path fill="none" stroke="#000000" stroke-width="3" stroke-miterlimit="10" d="M46.2,201.584"/>
</g>
<g id="Wand_G_Active">
	<line fill="none" stroke="#E2001A" stroke-width="3" stroke-miterlimit="10" x1="104.175" y1="202.883" x2="44.902" y2="202.883"/>
</g>
<g id="Wand_G_Over">
	<line fill="none" stroke="#707173" stroke-width="3" stroke-miterlimit="10" x1="104.175" y1="202.883" x2="44.902" y2="202.883"/>
</g>
<g id="Wand_G">
	<line fill="none" stroke="#000000" stroke-width="3" stroke-miterlimit="10" x1="104.175" y1="202.883" x2="44.902" y2="202.883"/>
</g>
<g id="Wand_H_Active">
	<path fill="none" stroke="#E2001A" stroke-width="3" stroke-miterlimit="10" d="M102.877,202.883"/>
	
		<line fill="none" stroke="#E2001A" stroke-width="3" stroke-miterlimit="10" x1="102.877" y1="123.533" x2="102.877" y2="216.985"/>
	<path fill="none" stroke="#E2001A" stroke-width="3" stroke-miterlimit="10" d="M102.877,144.301"/>
</g>
<g id="Wand_H_Over">
	<path fill="none" stroke="#707173" stroke-width="3" stroke-miterlimit="10" d="M102.877,202.883"/>
	
		<line fill="none" stroke="#707173" stroke-width="3" stroke-miterlimit="10" x1="102.877" y1="123.533" x2="102.877" y2="216.985"/>
	<path fill="none" stroke="#707173" stroke-width="3" stroke-miterlimit="10" d="M102.877,144.301"/>
</g>
<g id="Wand_H">
	<path fill="none" stroke="#000000" stroke-width="3" stroke-miterlimit="10" d="M102.877,202.883"/>
	
		<line fill="none" stroke="#000000" stroke-width="3" stroke-miterlimit="10" x1="102.877" y1="123.533" x2="102.877" y2="216.985"/>
	<path fill="none" stroke="#000000" stroke-width="3" stroke-miterlimit="10" d="M102.877,144.301"/>
</g>
<g id="Wand_I_Active">
	<line fill="none" stroke="#E2001A" stroke-width="3" stroke-miterlimit="10" x1="46.2" y1="145.599" x2="46.2" y2="91.689"/>
	<path fill="none" stroke="#E2001A" stroke-width="3" stroke-miterlimit="10" d="M46.2,145.599"/>
</g>
<g id="Wand_I_Over">
	<line fill="none" stroke="#707173" stroke-width="3" stroke-miterlimit="10" x1="46.2" y1="145.599" x2="46.2" y2="91.689"/>
	<path fill="none" stroke="#707173" stroke-width="3" stroke-miterlimit="10" d="M46.2,145.599"/>
</g>
<g id="Wand_I">
	<line fill="none" stroke="#000000" stroke-width="3" stroke-miterlimit="10" x1="46.2" y1="145.599" x2="46.2" y2="91.689"/>
	<path fill="none" stroke="#000000" stroke-width="3" stroke-miterlimit="10" d="M46.2,145.599"/>
</g>
<g id="Wand_J_Active">
	<line fill="none" stroke="#E2001A" stroke-width="3" stroke-miterlimit="10" x1="44.902" y1="92.988" x2="146.835" y2="92.988"/>
</g>
<g id="Wand_J_Over">
	<line fill="none" stroke="#707173" stroke-width="3" stroke-miterlimit="10" x1="44.902" y1="92.988" x2="146.835" y2="92.988"/>
</g>
<g id="Wand_J">
	<line fill="none" stroke="#000000" stroke-width="3" stroke-miterlimit="10" x1="44.902" y1="92.988" x2="146.835" y2="92.988"/>
</g>
<g id="Wand_K_Active">
	<line fill="none" stroke="#E2001A" stroke-width="3" stroke-miterlimit="10" x1="174.265" y1="92.988" x2="434.722" y2="92.988"/>
</g>
<g id="Wand_K_Over">
	<line fill="none" stroke="#707173" stroke-width="3" stroke-miterlimit="10" x1="174.265" y1="92.988" x2="434.722" y2="92.988"/>
</g>
<g id="Wand_K">
	<line fill="none" stroke="#000000" stroke-width="3" stroke-miterlimit="10" x1="174.265" y1="92.988" x2="434.722" y2="92.988"/>
</g>
<g id="Wand_L_Active">
	<path fill="none" stroke="#E2001A" stroke-width="3" stroke-miterlimit="10" d="M174.265,92.988"/>
	<line fill="none" stroke="#E2001A" stroke-width="3" stroke-miterlimit="10" x1="174.265" y1="92.988" x2="240.201" y2="92.988"/>
</g>
<g id="Wand_L_Over">
	<path fill="none" stroke="#707173" stroke-width="3" stroke-miterlimit="10" d="M174.265,92.988"/>
	<line fill="none" stroke="#707173" stroke-width="3" stroke-miterlimit="10" x1="174.265" y1="92.988" x2="240.201" y2="92.988"/>
</g>
<g id="Wand_L">
	<path fill="none" stroke="#000000" stroke-width="3" stroke-miterlimit="10" d="M174.265,92.988"/>
	<line fill="none" stroke="#000000" stroke-width="3" stroke-miterlimit="10" x1="174.265" y1="92.988" x2="240.201" y2="92.988"/>
</g>
<g id="Wand_M_Active">
	<line fill="none" stroke="#E2001A" stroke-width="3" stroke-miterlimit="10" x1="240.287" y1="47.126" x2="175.822" y2="47.126"/>
</g>
<g id="Wand_M_Over">
	<line fill="none" stroke="#707173" stroke-width="3" stroke-miterlimit="10" x1="240.287" y1="47.126" x2="175.822" y2="47.126"/>
</g>
<g id="Wand_M">
	<line fill="none" stroke="#000000" stroke-width="3" stroke-miterlimit="10" x1="240.287" y1="47.126" x2="175.822" y2="47.126"/>
</g>
</svg>
