<?xml version="1.0" encoding="utf-8"?>
<!-- Generator: Adobe Illustrator 15.1.0, SVG Export Plug-In . SVG Version: 6.00 Build 0)  -->
<!DOCTYPE svg PUBLIC "-//W3C//DTD SVG 1.1//EN" "http://www.w3.org/Graphics/SVG/1.1/DTD/svg11.dtd">
<svg version="1.1" id="Ebene_1" xmlns="http://www.w3.org/2000/svg" xmlns:xlink="http://www.w3.org/1999/xlink" x="0px" y="0px"
	 width="728.5px" height="1031.809px" viewBox="0 0 728.5 1031.809" enable-background="new 0 0 728.5 1031.809"
	 xml:space="preserve">
<g id="Grundriss">
	
		<line fill="none" stroke="#000000" stroke-width="3" stroke-miterlimit="10" x1="249.381" y1="440.927" x2="509.838" y2="440.927"/>
	<polyline fill="none" stroke="#000000" stroke-width="3" stroke-miterlimit="10" points="212.346,597.288 121.316,597.288 
		121.316,440.927 221.951,440.927 	"/>
	
		<line fill="none" stroke="#000000" stroke-width="3" stroke-miterlimit="10" x1="435.768" y1="597.288" x2="257.688" y2="597.288"/>
	<polyline fill="none" stroke="#000000" stroke-width="3" stroke-miterlimit="10" points="530.172,440.927 576.379,440.927 
		576.379,597.288 480.677,597.288 	"/>
	<polyline fill="none" stroke="#000000" stroke-width="3" stroke-miterlimit="10" points="221.258,395.065 130.401,395.065 
		130.401,440.927 221.951,440.927 	"/>
	<polyline fill="none" stroke="#000000" stroke-width="3" stroke-miterlimit="10" points="249.381,440.927 314.105,440.927 
		314.105,395.065 250.938,395.065 	"/>
	
		<line fill="none" stroke="#000000" stroke-width="3" stroke-miterlimit="10" x1="177.993" y1="550.821" x2="121.316" y2="550.821"/>
	
		<line fill="none" stroke="#000000" stroke-width="3" stroke-miterlimit="10" x1="177.993" y1="471.472" x2="177.993" y2="564.924"/>
	
		<line fill="none" stroke="#000000" stroke-width="3" stroke-miterlimit="10" x1="121.316" y1="492.239" x2="177.993" y2="492.239"/>
	<g id="Ebene_2">
	</g>
	<g enable-background="new    ">
		<path d="M551.041,448.268h2.355l3.525,9.965h-2.258l-0.657-2.048h-3.67l-0.675,2.048h-2.179L551.041,448.268z M550.903,454.467
			h2.552l-1.259-3.921L550.903,454.467z"/>
	</g>
	<g enable-background="new    ">
		<path d="M568.872,516.285c0.305,0.424,0.457,0.931,0.457,1.521c0,0.608-0.153,1.098-0.461,1.467
			c-0.172,0.207-0.426,0.396-0.76,0.567c0.508,0.186,0.892,0.479,1.15,0.879c0.259,0.401,0.389,0.888,0.389,1.461
			c0,0.59-0.148,1.119-0.444,1.588c-0.188,0.312-0.423,0.572-0.705,0.784c-0.318,0.243-0.693,0.41-1.126,0.501
			c-0.433,0.09-0.901,0.135-1.408,0.135h-4.489v-9.965h4.815C567.505,515.242,568.365,515.595,568.872,516.285z M563.462,516.954
			v2.197h2.422c0.433,0,0.783-0.082,1.054-0.246c0.27-0.165,0.404-0.457,0.404-0.876c0-0.464-0.178-0.771-0.535-0.919
			c-0.308-0.104-0.7-0.156-1.178-0.156H563.462z M563.462,520.8v2.657h2.419c0.432,0,0.769-0.059,1.009-0.176
			c0.437-0.217,0.655-0.631,0.655-1.244c0-0.519-0.212-0.874-0.635-1.068c-0.236-0.107-0.568-0.164-0.996-0.169H563.462z"/>
	</g>
	<g enable-background="new    ">
		<path d="M525.386,581.655c0.802-0.82,1.823-1.23,3.062-1.23c1.659,0,2.871,0.551,3.639,1.65c0.423,0.617,0.65,1.236,0.682,1.858
			h-2.082c-0.132-0.478-0.303-0.838-0.51-1.081c-0.371-0.433-0.921-0.649-1.649-0.649c-0.741,0-1.326,0.306-1.755,0.916
			c-0.428,0.61-0.643,1.475-0.643,2.593c0,1.117,0.227,1.955,0.679,2.512c0.451,0.557,1.025,0.834,1.722,0.834
			c0.715,0,1.259-0.238,1.634-0.716c0.207-0.257,0.379-0.643,0.516-1.156h2.068c-0.178,1.086-0.634,1.97-1.367,2.65
			c-0.733,0.68-1.673,1.021-2.819,1.021c-1.417,0-2.532-0.46-3.344-1.379c-0.812-0.924-1.217-2.19-1.217-3.8
			C524.001,583.938,524.462,582.597,525.386,581.655z"/>
	</g>
	<g enable-background="new    ">
		<path d="M353.648,580.831c0.699,0.229,1.265,0.651,1.698,1.264c0.347,0.496,0.584,1.032,0.71,1.609s0.189,1.127,0.189,1.649
			c0,1.325-0.266,2.447-0.798,3.366c-0.722,1.24-1.836,1.859-3.343,1.859h-4.296v-9.965h4.296
			C352.724,580.624,353.237,580.695,353.648,580.831z M349.831,582.344v6.504h1.923c0.983,0,1.67-0.484,2.058-1.453
			c0.213-0.532,0.318-1.165,0.318-1.9c0-1.014-0.159-1.792-0.477-2.335c-0.318-0.543-0.952-0.815-1.899-0.815H349.831z"/>
	</g>
	<g enable-background="new    ">
		<path d="M167.406,582.378h-5.273v2.116h4.84v1.73h-4.84v2.562h5.516v1.791h-7.551v-9.965h7.308V582.378z"/>
	</g>
	<g enable-background="new    ">
		<path d="M127.6,571.034h7.105v1.751h-5.037v2.292h4.415v1.73h-4.415v4.178H127.6V571.034z"/>
	</g>
	<g enable-background="new    ">
		<path d="M152.574,560.424c-0.158-0.681-0.543-1.156-1.156-1.427c-0.343-0.148-0.724-0.223-1.143-0.223
			c-0.802,0-1.461,0.302-1.978,0.907c-0.516,0.604-0.774,1.515-0.774,2.729c0,1.223,0.279,2.089,0.838,2.598
			c0.559,0.508,1.194,0.762,1.906,0.762c0.699,0,1.271-0.2,1.717-0.601c0.446-0.401,0.721-0.927,0.825-1.576h-2.305v-1.663h4.15
			v5.348h-1.379l-0.209-1.244c-0.401,0.472-0.762,0.804-1.082,0.996c-0.55,0.337-1.226,0.505-2.028,0.505
			c-1.32,0-2.402-0.457-3.245-1.371c-0.879-0.919-1.318-2.176-1.318-3.771c0-1.612,0.444-2.904,1.332-3.877
			c0.888-0.974,2.062-1.46,3.522-1.46c1.267,0,2.284,0.321,3.052,0.964c0.769,0.642,1.209,1.443,1.322,2.403H152.574z"/>
	</g>
	<g enable-background="new    ">
		<path d="M186.065,523.205v-9.965h2.069v3.8h3.874v-3.8h2.068v9.965h-2.068v-4.448h-3.874v4.448H186.065z"/>
	</g>
	<g enable-background="new    ">
		<path d="M129.5,471.5h-2.068v-9.965h2.068V471.5z"/>
	</g>
	<g enable-background="new    ">
		<path d="M158.513,454.454v0.23c0.017,0.771,0.096,1.312,0.238,1.626c0.142,0.312,0.446,0.47,0.912,0.47
			c0.461,0,0.766-0.172,0.914-0.514c0.089-0.203,0.133-0.546,0.133-1.028v-6.97h2.083v6.937c0,0.847-0.144,1.519-0.43,2.015
			c-0.485,0.838-1.359,1.257-2.625,1.257c-1.265,0-2.113-0.339-2.544-1.018c-0.432-0.678-0.648-1.603-0.648-2.774v-0.23H158.513z"/>
	</g>
	<g enable-background="new    ">
		<path d="M363.378,448.268h2.048v4.106l3.85-4.106h2.69l-4.089,4.099l4.299,5.866h-2.677l-3.07-4.35l-1.003,1.017v3.333h-2.048
			V448.268z"/>
	</g>
	<g enable-background="new    ">
		<path d="M275.659,425.193h2.082v8.174h4.976v1.791h-7.058V425.193z"/>
	</g>
	<g enable-background="new    ">
		<path d="M282.269,402.119h2.996v9.964h-1.94v-6.74c0-0.194,0.002-0.465,0.007-0.815c0.004-0.349,0.007-0.618,0.007-0.808
			l-1.889,8.362h-2.023l-1.875-8.362c0,0.189,0.002,0.458,0.007,0.808c0.004,0.35,0.007,0.621,0.007,0.815v6.74h-1.94v-9.964h3.03
			l1.813,7.835L282.269,402.119z"/>
	</g>
</g>
<g id="Wand_A_Active">
	
		<line fill="none" stroke="#E2001A" stroke-width="3" stroke-miterlimit="10" x1="530.172" y1="440.927" x2="577.678" y2="440.927"/>
</g>
<g id="Wand_A_Over">
	
		<line fill="none" stroke="#707173" stroke-width="3" stroke-miterlimit="10" x1="530.172" y1="440.927" x2="577.678" y2="440.927"/>
</g>
<g id="Wand_A">
	
		<line fill="none" stroke="#000000" stroke-width="3" stroke-miterlimit="10" x1="530.172" y1="440.927" x2="577.678" y2="440.927"/>
</g>
<g id="Wand_B_Active">
	
		<line fill="none" stroke="#E2001A" stroke-width="3" stroke-miterlimit="10" x1="576.379" y1="439.628" x2="576.379" y2="598.584"/>
</g>
<g id="Wand_B_Over">
	
		<line fill="none" stroke="#707173" stroke-width="3" stroke-miterlimit="10" x1="576.379" y1="439.628" x2="576.379" y2="598.584"/>
</g>
<g id="Wand_B">
	
		<line fill="none" stroke="#000000" stroke-width="3" stroke-miterlimit="10" x1="576.379" y1="439.628" x2="576.379" y2="598.584"/>
</g>
<g id="Wand_C_Active">
	
		<line fill="none" stroke="#E2001A" stroke-width="3" stroke-miterlimit="10" x1="577.678" y1="597.288" x2="480.677" y2="597.288"/>
	<path fill="none" stroke="#E2001A" stroke-width="3" stroke-miterlimit="10" d="M177.993,492.239"/>
	<path fill="none" stroke="#E2001A" stroke-width="3" stroke-miterlimit="10" d="M121.316,492.239"/>
</g>
<g id="Wand_C_Over">
	
		<line fill="none" stroke="#707173" stroke-width="3" stroke-miterlimit="10" x1="577.678" y1="597.288" x2="480.677" y2="597.288"/>
	<path fill="none" stroke="#707173" stroke-width="3" stroke-miterlimit="10" d="M177.993,492.239"/>
	<path fill="none" stroke="#707173" stroke-width="3" stroke-miterlimit="10" d="M121.316,492.239"/>
</g>
<g id="Wand_C">
	
		<line fill="none" stroke="#000000" stroke-width="3" stroke-miterlimit="10" x1="577.678" y1="597.288" x2="480.677" y2="597.288"/>
	<path fill="none" stroke="#000000" stroke-width="3" stroke-miterlimit="10" d="M177.993,492.239"/>
	<path fill="none" stroke="#000000" stroke-width="3" stroke-miterlimit="10" d="M121.316,492.239"/>
</g>
<g id="Wand_D_Active">
	
		<line fill="none" stroke="#E2001A" stroke-width="3" stroke-miterlimit="10" x1="435.768" y1="597.288" x2="257.688" y2="597.288"/>
</g>
<g id="Wand_D_Over">
	
		<line fill="none" stroke="#707173" stroke-width="3" stroke-miterlimit="10" x1="435.768" y1="597.288" x2="257.688" y2="597.288"/>
</g>
<g id="Wand_D">
	
		<line fill="none" stroke="#000000" stroke-width="3" stroke-miterlimit="10" x1="435.768" y1="597.288" x2="257.688" y2="597.288"/>
</g>
<g id="Wand_E_Active">
	
		<line fill="none" stroke="#E2001A" stroke-width="3" stroke-miterlimit="10" x1="212.346" y1="597.288" x2="119.931" y2="597.288"/>
</g>
<g id="Wand_E_Over">
	
		<line fill="none" stroke="#707173" stroke-width="3" stroke-miterlimit="10" x1="212.346" y1="597.288" x2="119.931" y2="597.288"/>
</g>
<g id="Wand_E">
	
		<line fill="none" stroke="#000000" stroke-width="3" stroke-miterlimit="10" x1="212.346" y1="597.288" x2="119.931" y2="597.288"/>
</g>
<g id="Wand_F_Active">
	<path fill="none" stroke="#E2001A" stroke-width="3" stroke-miterlimit="10" d="M121.316,549.522"/>
	
		<line fill="none" stroke="#E2001A" stroke-width="3" stroke-miterlimit="10" x1="121.316" y1="598.584" x2="121.316" y2="549.522"/>
	<path fill="none" stroke="#E2001A" stroke-width="3" stroke-miterlimit="10" d="M121.316,549.522"/>
</g>
<g id="Wand_F_Over">
	<path fill="none" stroke="#707173" stroke-width="3" stroke-miterlimit="10" d="M121.316,549.522"/>
	
		<line fill="none" stroke="#707173" stroke-width="3" stroke-miterlimit="10" x1="121.316" y1="598.584" x2="121.316" y2="549.522"/>
	<path fill="none" stroke="#707173" stroke-width="3" stroke-miterlimit="10" d="M121.316,549.522"/>
</g>
<g id="Wand_F">
	<path fill="none" stroke="#000000" stroke-width="3" stroke-miterlimit="10" d="M121.316,549.522"/>
	
		<line fill="none" stroke="#000000" stroke-width="3" stroke-miterlimit="10" x1="121.316" y1="598.584" x2="121.316" y2="549.522"/>
	<path fill="none" stroke="#000000" stroke-width="3" stroke-miterlimit="10" d="M121.316,549.522"/>
</g>
<g id="Wand_G_Active">
	
		<line fill="none" stroke="#E2001A" stroke-width="3" stroke-miterlimit="10" x1="179.291" y1="550.821" x2="120.018" y2="550.821"/>
</g>
<g id="Wand_G_Over">
	
		<line fill="none" stroke="#707173" stroke-width="3" stroke-miterlimit="10" x1="179.291" y1="550.821" x2="120.018" y2="550.821"/>
</g>
<g id="Wand_G">
	
		<line fill="none" stroke="#000000" stroke-width="3" stroke-miterlimit="10" x1="179.291" y1="550.821" x2="120.018" y2="550.821"/>
</g>
<g id="Wand_H_Active">
	<path fill="none" stroke="#E2001A" stroke-width="3" stroke-miterlimit="10" d="M177.993,550.821"/>
	
		<line fill="none" stroke="#E2001A" stroke-width="3" stroke-miterlimit="10" x1="177.993" y1="471.472" x2="177.993" y2="564.924"/>
	<path fill="none" stroke="#E2001A" stroke-width="3" stroke-miterlimit="10" d="M177.993,492.239"/>
</g>
<g id="Wand_H_Over">
	<path fill="none" stroke="#707173" stroke-width="3" stroke-miterlimit="10" d="M177.993,550.821"/>
	
		<line fill="none" stroke="#707173" stroke-width="3" stroke-miterlimit="10" x1="177.993" y1="471.472" x2="177.993" y2="564.924"/>
	<path fill="none" stroke="#707173" stroke-width="3" stroke-miterlimit="10" d="M177.993,492.239"/>
</g>
<g id="Wand_H">
	<path fill="none" stroke="#000000" stroke-width="3" stroke-miterlimit="10" d="M177.993,550.821"/>
	
		<line fill="none" stroke="#000000" stroke-width="3" stroke-miterlimit="10" x1="177.993" y1="471.472" x2="177.993" y2="564.924"/>
	<path fill="none" stroke="#000000" stroke-width="3" stroke-miterlimit="10" d="M177.993,492.239"/>
</g>
<g id="Wand_I_Active">
	
		<line fill="none" stroke="#E2001A" stroke-width="3" stroke-miterlimit="10" x1="121.316" y1="493.537" x2="121.316" y2="439.628"/>
	<path fill="none" stroke="#E2001A" stroke-width="3" stroke-miterlimit="10" d="M121.316,493.537"/>
</g>
<g id="Wand_I_Over">
	
		<line fill="none" stroke="#707173" stroke-width="3" stroke-miterlimit="10" x1="121.316" y1="493.537" x2="121.316" y2="439.628"/>
	<path fill="none" stroke="#707173" stroke-width="3" stroke-miterlimit="10" d="M121.316,493.537"/>
</g>
<g id="Wand_I">
	
		<line fill="none" stroke="#000000" stroke-width="3" stroke-miterlimit="10" x1="121.316" y1="493.537" x2="121.316" y2="439.628"/>
	<path fill="none" stroke="#000000" stroke-width="3" stroke-miterlimit="10" d="M121.316,493.537"/>
</g>
<g id="Wand_J_Active">
	
		<line fill="none" stroke="#E2001A" stroke-width="3" stroke-miterlimit="10" x1="120.018" y1="440.927" x2="221.951" y2="440.927"/>
</g>
<g id="Wand_J_Over">
	
		<line fill="none" stroke="#707173" stroke-width="3" stroke-miterlimit="10" x1="120.018" y1="440.927" x2="221.951" y2="440.927"/>
</g>
<g id="Wand_J">
	
		<line fill="none" stroke="#000000" stroke-width="3" stroke-miterlimit="10" x1="120.018" y1="440.927" x2="221.951" y2="440.927"/>
</g>
<g id="Wand_K_Active">
	
		<line fill="none" stroke="#E2001A" stroke-width="3" stroke-miterlimit="10" x1="249.381" y1="440.927" x2="509.838" y2="440.927"/>
</g>
<g id="Wand_K_Over">
	
		<line fill="none" stroke="#707173" stroke-width="3" stroke-miterlimit="10" x1="249.381" y1="440.927" x2="509.838" y2="440.927"/>
</g>
<g id="Wand_K">
	
		<line fill="none" stroke="#000000" stroke-width="3" stroke-miterlimit="10" x1="249.381" y1="440.927" x2="509.838" y2="440.927"/>
</g>
<g id="Wand_L_Active">
	<path fill="none" stroke="#E2001A" stroke-width="3" stroke-miterlimit="10" d="M249.381,440.927"/>
	
		<line fill="none" stroke="#E2001A" stroke-width="3" stroke-miterlimit="10" x1="249.381" y1="440.927" x2="315.317" y2="440.927"/>
</g>
<g id="Wand_L_Over">
	<path fill="none" stroke="#707173" stroke-width="3" stroke-miterlimit="10" d="M249.381,440.927"/>
	
		<line fill="none" stroke="#707173" stroke-width="3" stroke-miterlimit="10" x1="249.381" y1="440.927" x2="315.317" y2="440.927"/>
</g>
<g id="Wand_L">
	<path fill="none" stroke="#000000" stroke-width="3" stroke-miterlimit="10" d="M249.381,440.927"/>
	
		<line fill="none" stroke="#000000" stroke-width="3" stroke-miterlimit="10" x1="249.381" y1="440.927" x2="315.317" y2="440.927"/>
</g>
<g id="Wand_M_Active">
	
		<line fill="none" stroke="#E2001A" stroke-width="3" stroke-miterlimit="10" x1="315.403" y1="395.065" x2="250.938" y2="395.065"/>
</g>
<g id="Wand_M_Over">
	
		<line fill="none" stroke="#707173" stroke-width="3" stroke-miterlimit="10" x1="315.403" y1="395.065" x2="250.938" y2="395.065"/>
</g>
<g id="Wand_M">
	
		<line fill="none" stroke="#000000" stroke-width="3" stroke-miterlimit="10" x1="315.403" y1="395.065" x2="250.938" y2="395.065"/>
</g>
</svg>
